<svg xmlns="http://www.w3.org/2000/svg" width="16" height="16" fill="none"><path fill="#6f737a" fill-rule="evenodd" d="M11.4939 4.48784c-.1937-.20777-.5215-.21236-.721-.01009L8.00074 7.28849 5.22871 4.47788c-.19949-.20227-.52728-.19768-.72103.01009-.18262.19585-.17835.50085.00968.6915l2.78172 2.82044-2.78152 2.82019c-.18803.1907-.1923.4957-.00968.6915.19375.2078.52154.2124.72104.0101l2.77182-2.81037 2.77196 2.81057c.1995.2022.5273.1977.721-.0101.1827-.1959.1784-.5009-.0097-.6915L8.7024 7.99991l2.7819-2.82057c.188-.19065.1923-.49566.0096-.6915" clip-rule="evenodd"/></svg>